HIERARCHY
ROOT hip
{
	OFFSET 0.000000 0.000000 0.000000 
	CHANNELS 6 Xposition Yposition Zposition Xrotation Zrotation Yrotation
	JOINT abdomen
	{
		OFFSET 0.000000 3.402643 0.000000 
		CHANNELS 3 Xrotation Zrotation Yrotation
		JOINT chest
		{
			OFFSET 0.000000 8.438565 -0.680529 
			CHANNELS 3 Xrotation Zrotation Yrotation
			JOINT neck
			{
				OFFSET 0.000000 10.207942 -0.272212 
				CHANNELS 3 Xrotation Zrotation Yrotation
				JOINT head
				{
					OFFSET 0.000000 3.130431 0.000000 
					CHANNELS 3 Xrotation Zrotation Yrotation
					End Site
					{
						OFFSET 0.000000 3.130435 0.000000 
					}
				}
			}
			JOINT lCollar
			{
				OFFSET 3.470700 6.669187 -0.816635 
				CHANNELS 3 Yrotation Zrotation Xrotation
				JOINT lShldr
				{
					OFFSET 3.198488 0.000000 0.000000 
					CHANNELS 3 Zrotation Yrotation Xrotation
					JOINT lForeArm
					{
						OFFSET 10.139888 0.000000 0.000000 
						CHANNELS 3 Yrotation Zrotation Xrotation
						JOINT lHand
						{
							OFFSET 8.370511 0.000000 0.000000 
							CHANNELS 3 Zrotation Yrotation Xrotation
							End Site
							{
								OFFSET 4.083176 0.000000 0.000000 
							}
						}
					}
				}
			}
			JOINT rCollar
			{
				OFFSET -3.470700 6.669187 -0.816635 
				CHANNELS 3 Yrotation Zrotation Xrotation
				JOINT rShldr
				{
					OFFSET -3.198488 0.000000 0.000000 
					CHANNELS 3 Zrotation Yrotation Xrotation
					JOINT rForeArm
					{
						OFFSET -10.139888 0.000000 0.000000 
						CHANNELS 3 Yrotation Zrotation Xrotation
						JOINT rHand
						{
							OFFSET -8.370511 0.000000 0.000000 
							CHANNELS 3 Zrotation Yrotation Xrotation
							End Site
							{
								OFFSET -4.083176 0.000000 0.000000 
							}
						}
					}
				}
			}
		}
	}
	JOINT lThigh
	{
		OFFSET 5.308129 -1.633274 1.361059 
		CHANNELS 3 Xrotation Zrotation Yrotation
		JOINT lShin
		{
			OFFSET -2.041588 -20.007561 0.000000 
			CHANNELS 3 Xrotation Zrotation Yrotation
			JOINT lFoot
			{
				OFFSET 0.000000 -19.190928 -1.224953 
				CHANNELS 3 Xrotation Yrotation Zrotation
				End Site
				{
					OFFSET 0.000000 -2.449906 4.627600 
				}
			}
		}
	}
	JOINT rThigh
	{
		OFFSET -5.308129 -1.633274 1.361059 
		CHANNELS 3 Xrotation Zrotation Yrotation
		JOINT rShin
		{
			OFFSET 2.041588 -20.007561 0.000000 
			CHANNELS 3 Xrotation Zrotation Yrotation
			JOINT rFoot
			{
				OFFSET 0.000000 -19.190928 -1.224953 
				CHANNELS 3 Xrotation Yrotation Zrotation
				End Site
				{
					OFFSET 0.000000 -2.449906 4.627600 
				}
			}
		}
	}
}
MOTION
Frames: 20
Frame Time: 0.033333
84.827782 7.507146 8.869767 -1.865234 -6.923828 84.775391 10.370376 -8.712459 -6.345483 -30.322266 18.486328 1.816408 7.579108 -10.013518 -6.603530 6.601563 -0.312500 -0.107475 2.000000 -2.000000 0.000000 -76.503906 19.345703 47.073547 -11.661488 -4.736443 9.690984 -2.375335 -4.518513 -0.986106 -2.000000 2.000000 0.000000 62.119144 3.320313 59.014236 17.837877 3.080262 13.610632 -4.375940 2.633277 -1.502270 -24.553268 19.339294 4.184708 44.066189 -1.224629 -14.845811 -3.914236 2.144997 -23.294506 3.974600 8.348817 -33.179619 -3.808198 2.213637 12.135767 -8.701136 5.660666 -9.024656 
85.554199 7.593383 8.926551 -1.298828 -6.708985 84.951172 10.370376 -8.712459 -6.345483 -29.648438 18.085938 3.196392 7.354788 -10.285444 -7.760914 6.455078 -0.019531 -0.019535 2.000000 -2.000000 0.000000 -77.197266 20.498047 46.048344 -11.930034 -4.995977 9.296313 -2.689112 -4.615051 -0.948142 -2.000000 2.000000 0.000000 62.001949 4.521484 58.271484 18.759855 3.233555 13.199058 -3.692214 2.821010 -1.471643 -23.144533 17.939510 4.611013 35.444714 -1.644541 -12.083788 -5.406913 2.084098 -21.805670 4.824288 7.685489 -32.328537 -3.767242 2.202509 11.161011 -8.914981 5.616334 -8.695989 
86.067871 7.654103 8.962000 -0.908203 -7.197265 85.527344 10.370376 -8.712459 -6.345483 -30.146484 17.929689 3.857422 7.494520 -10.710832 -9.023854 6.220703 0.400391 0.117256 2.000000 -2.000000 0.000000 -77.851563 21.816404 46.234100 -12.247208 -5.064809 8.976903 -3.669870 -4.874577 -0.871073 -2.000000 2.000000 0.000000 61.835938 5.244141 57.832031 19.551720 3.208643 13.128988 -3.369821 2.919530 -1.452593 -21.675545 16.402784 3.752801 24.811705 -2.159184 -7.709599 -5.726932 2.085944 -21.694595 4.950994 7.351275 -31.431953 -3.714010 2.139284 9.544415 -9.703831 5.580632 -8.728511 
86.384575 7.741110 8.960056 -0.585938 -7.578137 86.561211 10.370376 -8.712459 -6.345483 -30.546877 17.744143 4.150392 7.630828 -11.259424 -10.458108 6.113281 0.947266 0.273438 2.000000 -2.000000 0.000000 -78.427734 22.910156 46.689457 -12.398118 -5.112298 8.686364 -4.965292 -5.219154 -0.765115 -2.000000 2.000000 0.000000 61.699215 5.771485 57.226559 19.958982 2.992702 13.448523 -3.408883 2.899899 -1.464668 -17.586521 14.842467 3.759046 9.084723 -2.227268 -3.817802 -2.229475 2.090862 -23.303488 5.195176 7.157494 -32.145016 -3.672559 2.117762 8.667949 -10.538291 5.514810 -8.211451 
86.955528 7.834907 8.924426 -0.400390 -7.939445 87.791626 10.370376 -8.712459 -6.345483 -30.986332 17.646484 4.326172 7.844087 -11.756231 -11.951678 5.898438 1.318359 0.380858 2.000000 -2.000000 0.000000 -78.808594 23.818359 47.626957 -12.489795 -5.146980 8.443945 -6.173319 -5.552895 -0.644904 -2.000000 2.000000 0.000000 61.328125 6.054688 56.544003 20.528231 3.098965 13.161191 -3.262334 2.949090 -1.446242 -14.861971 13.738866 3.530327 -3.474232 -1.950674 -1.004900 0.566144 2.178311 -25.671022 5.565221 6.945587 -32.965279 -3.666442 2.110799 8.228926 -11.192657 5.439839 -7.680040 
87.775497 7.902799 8.851551 -0.380859 -8.437500 88.906250 10.370376 -8.712459 -6.345483 -31.611332 17.832031 4.443359 8.104661 -12.272844 -13.521662 5.751953 1.679688 0.488568 2.000000 -2.000000 0.000000 -79.130859 24.658201 49.062504 -12.667748 -5.045837 8.338943 -7.313266 -5.856433 -0.529823 -2.000000 2.000000 0.000000 60.830082 6.142578 57.090893 21.169834 2.922624 13.473436 -4.082943 2.712398 -1.484962 -17.894352 13.363999 4.396106 -3.481561 -1.949998 -0.916483 -2.826370 2.590895 -28.676344 5.760806 7.074516 -33.890984 -3.633540 2.088341 7.518177 -11.864629 5.432141 -7.984724 
88.379318 7.934079 8.740332 -0.673828 -8.935546 89.736328 10.370376 -8.712459 -6.345483 -31.962891 18.525393 4.570314 8.061662 -12.943021 -14.803512 5.800781 2.060547 0.585938 2.000000 -2.000000 0.000000 -79.599609 25.312500 50.078129 -13.138351 -4.883785 8.270161 -7.735848 -5.950431 -0.494546 -2.000000 2.000000 0.000000 60.078125 6.416016 57.842892 21.656353 2.792678 13.670674 -4.307583 2.653049 -1.498232 -19.490459 12.722998 11.578842 -3.693079 -2.098770 -6.546688 -7.416511 2.959049 -30.646906 6.063014 7.130733 -33.791096 -3.627611 2.082457 6.864049 -12.508191 5.345446 -7.294251 
89.182968 8.004981 8.599308 -0.517578 -8.818360 90.478516 10.370376 -8.712459 -6.345483 -30.566404 18.144533 5.481556 6.962911 -12.873163 -15.960513 5.693359 2.275391 0.664063 2.000000 -2.000000 0.000000 -79.189453 25.019529 50.677963 -13.813757 -4.800312 8.196484 -7.106827 -5.799560 -0.561330 -2.000000 2.000000 0.000000 59.707035 7.460938 57.316296 21.952951 2.933756 13.298015 -3.926681 2.761721 -1.475729 -19.691399 11.419702 15.451561 -3.827023 -2.175135 -9.507120 -10.963234 2.952930 -29.020466 6.940662 6.836976 -34.511547 -3.603748 2.058677 6.788215 -13.009494 5.272645 -6.739691 
89.805923 7.972061 8.453302 -0.986328 -9.199219 90.683594 10.370376 -8.712459 -6.345483 -30.605471 18.681641 6.093751 6.869168 -12.854370 -16.859051 5.488282 2.617188 0.771930 2.000000 -2.000000 0.000000 -78.671875 25.664064 50.687824 -14.429726 -4.753398 8.164212 -6.251899 -5.571851 -0.640327 -2.000000 2.000000 0.000000 59.179688 7.714845 58.116543 22.395302 3.040011 13.010695 -3.780150 2.801225 -1.467072 -20.036522 11.423743 9.794227 -3.613086 -2.029358 -3.857177 -12.001794 2.710265 -26.370884 7.428657 7.041714 -34.478756 -3.637171 2.081291 6.814698 -13.316504 5.215907 -6.170879 
90.240883 7.914014 8.283678 -1.347656 -9.570313 90.808922 10.370376 -8.712459 -6.345483 -30.830076 18.955080 6.468017 6.908564 -12.700831 -17.579519 5.390656 2.929660 0.859881 2.000000 -2.000000 0.000000 -77.861328 26.396484 50.527344 -14.989415 -4.735070 7.986976 -6.192928 -5.552752 -0.643760 -2.000000 2.000000 0.000000 58.994141 7.871094 59.052738 22.366545 3.043100 12.961967 -3.320955 2.929417 -1.449706 -19.597181 11.170233 5.419796 -3.467402 -1.942477 -0.536313 -11.953521 2.407831 -23.000349 7.957751 7.145115 -34.287533 -3.603965 2.079282 6.572103 -13.656938 5.140152 -5.357867 
91.197250 7.834624 8.068912 -1.582031 -9.619140 90.498047 10.370376 -8.712459 -6.345483 -30.898438 19.101563 7.200460 6.992409 -12.287143 -18.070621 5.722657 2.998047 0.869651 2.000000 -2.000000 0.000000 -76.669922 27.138670 50.732426 -15.432327 -4.708196 7.788842 -6.418871 -5.609670 -0.620840 -2.000000 2.000000 0.000000 59.062496 7.890625 60.000000 22.075880 3.185235 12.726341 -3.105947 2.978750 -1.437004 -18.316544 10.973972 4.763690 -3.512287 -1.959708 -1.432370 -11.429055 2.181303 -20.671181 8.895996 6.990862 -33.665222 -3.594000 2.058907 6.358648 -13.955912 5.029651 -4.749078 
92.257973 7.739636 7.792735 -1.738281 -9.638674 89.521484 10.370376 -8.712459 -6.345483 -31.484375 19.599609 7.910157 7.523628 -12.063596 -18.232561 6.210938 2.968750 0.869141 2.000000 -2.000000 0.000000 -75.595711 28.271484 50.878906 -15.511206 -4.691124 7.748648 -6.546636 -5.647761 -0.613409 -2.000000 2.000000 0.000000 59.042969 7.568360 62.081364 21.872234 3.262714 12.584471 -2.724782 3.086951 -1.424249 -17.434008 11.195605 4.708952 -3.511286 -1.979354 -1.871242 -10.066749 2.152986 -20.950182 10.044277 6.487081 -32.259262 -3.585779 2.041760 5.988607 -14.237719 4.917727 -3.801960 
93.370537 7.657197 7.482965 -1.816406 -9.677734 88.455391 10.370376 -8.712459 -6.345483 -32.314453 20.048830 8.417969 8.237817 -11.853806 -18.353081 6.533203 2.871094 0.840333 2.000000 -2.000000 0.000000 -74.501953 29.277344 51.132813 -15.049755 -4.652195 7.902760 -6.920024 -5.742486 -0.581938 -2.000000 2.000000 0.000000 59.277340 7.031250 63.623047 21.119547 3.338214 12.628381 -2.568390 3.136055 -1.415009 -16.668634 11.053653 6.435042 -3.504364 -1.989897 -1.851658 -5.936338 1.885297 -19.879963 11.149274 5.825972 -30.716013 -3.556601 2.060836 5.383217 -14.273496 4.833061 -2.824776 
94.270508 7.617718 7.154018 -1.757813 -9.589845 87.763672 10.370376 -8.712459 -6.345483 -32.802734 20.156250 8.613282 8.588313 -11.616358 -18.418364 6.562500 2.714844 0.791016 2.000000 -2.000000 0.000000 -73.525391 29.619139 51.303654 -14.123936 -4.493348 8.412169 -7.273871 -5.837233 -0.541868 -2.000000 2.000000 0.000000 59.628902 6.406250 64.375427 20.209669 3.269246 12.790359 -1.688364 3.381279 -1.362450 -15.709930 10.554099 8.003381 -3.514871 -1.970695 -2.076849 -2.944837 1.653435 -18.764086 12.329257 4.946600 -29.442209 -3.537934 2.051984 4.896011 -13.987288 4.751142 -1.748725 
94.949394 7.613604 6.815102 -1.601563 -9.619140 87.490234 10.370376 -8.712459 -6.345483 -33.242188 19.912109 8.554688 8.700352 -11.301618 -18.563541 6.503906 2.558594 0.742188 2.000000 -2.000000 0.000000 -72.412109 29.345703 51.909084 -13.179447 -4.307012 8.890466 -7.765448 -5.969700 -0.492837 -2.000000 2.000000 0.000000 60.039063 5.478516 64.483353 19.218719 3.083656 13.248813 -1.600340 3.410640 -1.367012 -19.785601 10.684118 8.302653 5.913937 -2.293178 -3.892673 -4.829455 1.596947 -17.299261 13.329375 4.013069 -28.270569 -3.508300 2.032521 4.058028 -13.597074 4.677556 -0.641913 
96.085152 7.554406 6.465382 -1.923828 -10.166016 87.236328 10.370376 -8.712459 -6.345483 -34.394531 20.576172 8.030777 8.970798 -11.439694 -18.563635 6.347656 2.509766 0.732850 2.000000 -2.000000 0.000000 -71.669922 28.994143 52.280121 -12.374285 -4.259508 9.181001 -7.962062 -6.016759 -0.461917 -2.000000 2.000000 0.000000 60.175785 4.052734 63.272175 17.842447 3.167187 13.165506 -0.964454 3.586650 -1.319676 -23.411465 11.216249 9.354201 13.313857 -2.472998 -6.081028 -4.886867 1.315360 -14.675737 13.772296 3.471622 -26.812645 -3.466365 2.001711 3.065155 -12.425677 4.604389 0.580467 
97.001480 7.547894 6.063512 -1.865234 -10.136718 87.294922 10.370376 -8.712459 -6.345483 -34.365234 20.839846 7.460938 8.634064 -11.701951 -18.396351 6.132813 2.431640 0.713305 2.000000 -2.000000 0.000000 -71.259766 27.939453 51.865234 -11.773928 -4.289953 9.477139 -7.028213 -5.780673 -0.565894 -2.000000 2.000000 0.000000 60.078125 2.900391 62.734871 16.383680 3.065721 13.531431 -1.776391 3.361675 -1.367652 -24.446468 10.786422 10.626595 16.797760 -2.549229 -7.310171 -3.557902 0.986275 -11.541656 14.757957 2.593722 -26.294569 -3.428787 1.984117 2.549789 -10.756286 4.498361 1.765183 
98.167725 7.538269 5.628313 -1.845703 -9.833984 87.078407 10.370376 -8.712459 -6.345483 -34.033207 21.162107 7.148438 8.296845 -11.741805 -18.120684 5.927734 2.324219 0.673828 2.000000 -2.000000 0.000000 -70.810547 26.787109 51.664562 -11.478395 -4.269224 9.651948 -6.497536 -5.638371 -0.616267 -2.000000 2.000000 0.000000 59.990234 1.611328 61.777618 14.780829 3.018073 13.665398 -1.913306 3.322484 -1.385510 -24.295843 10.321575 11.719430 19.454657 -2.598423 -8.265708 -4.451578 0.689327 -8.314362 15.931302 1.462280 -25.227280 -3.418580 1.993852 1.992761 -8.422964 4.417111 3.197054 
98.901466 7.506389 5.176175 -1.923828 -9.501953 86.718750 10.370376 -8.712459 -6.345483 -34.150394 21.728516 6.679688 8.531815 -11.717734 -17.536764 5.839844 2.255821 0.654689 2.000000 -2.000000 0.000000 -70.341797 25.908201 51.488640 -11.488135 -4.398369 9.620899 -5.790203 -5.448189 -0.687688 -2.000000 2.000000 0.000000 59.912109 -0.087891 59.960918 12.709537 2.912565 13.785910 -0.944885 3.586650 -1.308755 -23.670061 10.174483 13.075966 21.617800 -2.631360 -9.190577 -5.895156 0.593500 -6.556448 16.964043 0.387359 -24.186298 -3.392899 1.976085 1.486943 -5.274248 4.381749 4.564239 
99.842796 7.471896 4.714948 -1.962891 -9.042969 86.347656 10.370376 -8.712459 -6.345483 -33.818359 21.982422 6.406250 8.497141 -11.363581 -17.063133 5.800781 2.060547 0.585938 2.000000 -2.000000 0.000000 -69.794922 24.453123 51.835938 -11.527051 -4.367909 9.638560 -5.917922 -5.486362 -0.670484 -2.000000 2.000000 0.000000 59.941406 -1.621094 58.701172 10.821083 2.461893 14.256354 -0.612171 3.684253 -1.289104 -22.623215 9.987204 14.767000 23.323435 -2.647851 -10.260545 -7.313555 0.459424 -4.993272 13.362094 -2.880888 -23.411722 6.425371 2.024247 1.911892 -5.007525 4.300035 5.903668 
